<svg width="52" height="52" viewBox="0 0 52 52" fill="none" xmlns="http://www.w3.org/2000/svg">
<path d="M50.5208 21.8011L41.9382 30.3725L37.0401 25.4719L40.7419 21.8011C41.0365 21.4574 41.0166 20.9454 40.6962 20.6254C40.3762 20.3058 39.8636 20.2859 39.5194 20.5802L35.8091 24.2425L33.3641 21.7922L41.9382 13.2208C42.2743 12.8831 42.2743 12.3377 41.9382 11.9999C41.6 11.6642 41.0539 11.6642 40.7157 11.9999L31.5176 21.1864C31.3534 21.3488 31.2611 21.5703 31.2611 21.8011C31.2611 22.0319 31.3534 22.253 31.5176 22.4158L32.7486 23.6363L31.5176 24.8661C30.0623 23.4114 27.7832 23.1797 26.0646 24.3119L25.3885 23.6363C24.5762 22.8271 23.4756 22.3727 22.328 22.3722C21.7858 22.3722 21.2477 22.472 20.7415 22.6669L19.259 21.1864L19.8745 20.5802C20.0388 20.4174 20.1311 20.1963 20.1311 19.9655C20.1311 19.7347 20.0388 19.5131 19.8745 19.3508L11.2661 10.7794C10.9262 10.4421 10.3768 10.4442 10.0394 10.7836C9.70159 11.1231 9.70371 11.6714 10.0436 12.0088L18.0107 19.9655L17.3952 20.5713L13.0605 24.8572L10.0004 21.7922C9.83747 21.6282 9.61608 21.536 9.38495 21.536C9.15383 21.536 8.93202 21.6282 8.76947 21.7922C8.43294 22.13 8.43294 22.6754 8.76947 23.0131L11.838 26.0781L10.607 27.2986L9.45395 28.5715L1.48687 20.5802C1.32432 20.4162 1.10251 20.324 0.871384 20.324C0.640258 20.324 0.418868 20.4162 0.255895 20.5802C-0.0802119 20.918 -0.0802119 21.4633 0.255895 21.8011L8.83846 30.3725C9.00228 30.5344 9.22367 30.6249 9.45395 30.6236C9.68466 30.6249 9.90605 30.5344 10.0699 30.3725L11.2661 29.1516L12.4882 30.3725C10.7963 32.0631 10.7963 34.803 12.4882 36.4936L14.1184 38.0954C14.2809 38.2594 14.5027 38.3516 14.7339 38.3516C14.965 38.3516 15.1864 38.2594 15.3494 38.0954C15.6855 37.7576 15.6855 37.2123 15.3494 36.8745L13.7455 35.2731C13.2557 34.7856 12.9805 34.1236 12.9805 33.4333C12.9805 32.7425 13.2557 32.0804 13.7455 31.5934L14.3525 30.9872L20.49 24.8572C21.5203 23.8811 23.1357 23.8811 24.166 24.8572L29.6796 30.3636C29.9742 30.7073 29.9543 31.2193 29.6343 31.5393C29.3139 31.8589 28.8012 31.8788 28.4575 31.5845L24.4606 27.5933C24.1186 27.2538 23.5653 27.2555 23.2254 27.5975C22.8855 27.9395 22.8872 28.4916 23.2297 28.8311L27.2261 32.8228C27.9694 33.5706 29.0912 33.7964 30.0661 33.3939C31.0414 32.9915 31.6764 32.0407 31.6738 30.9872C31.673 30.2985 31.3987 29.6382 30.9106 29.1516L27.3391 25.5844C28.3348 25.1337 29.5048 25.3324 30.2951 26.0866L37.6556 33.4375C38.1403 33.9253 38.4116 34.5857 38.4099 35.2731C38.4116 35.9605 38.1403 36.6204 37.6556 37.1083L35.2021 39.5586L32.6881 42.0609L30.9106 43.8445L26.004 48.7447C25.6658 49.0803 25.1197 49.0803 24.7815 48.7447C24.4454 48.4073 24.4454 47.8619 24.7815 47.5242L30.3387 42C30.5859 41.7886 30.6939 41.4563 30.6177 41.1401C30.5415 40.8239 30.2943 40.577 29.9776 40.5009C29.6606 40.4248 29.3283 40.5322 29.1162 40.7795L23.5937 46.2859C23.25 46.5801 22.7374 46.5603 22.4169 46.2407C22.0969 45.9206 22.077 45.4087 22.3716 45.065L27.8852 39.5586C28.0495 39.3962 28.1417 39.1747 28.1417 38.9439C28.1417 38.7131 28.0495 38.492 27.8852 38.3292C27.547 37.9935 27.0009 37.9935 26.6627 38.3292L21.1402 43.8445C20.8024 44.1801 20.2564 44.1801 19.9181 43.8445C19.7539 43.6817 19.6616 43.4606 19.6616 43.2298C19.6616 42.999 19.7539 42.7774 19.9181 42.6151L25.4317 37.1083C25.596 36.9459 25.6882 36.7244 25.6882 36.4936C25.6882 36.2628 25.596 36.0417 25.4317 35.8789C25.0935 35.5432 24.5474 35.5432 24.2092 35.8789L18.6871 41.3942C18.3472 41.7311 17.7978 41.7294 17.4604 41.39C17.1226 41.0505 17.1247 40.5017 17.4646 40.1648L24.1313 33.5153C24.4712 33.1758 24.4712 32.6254 24.1313 32.2859C23.7914 31.9464 23.2402 31.9464 22.9003 32.2859L16.1989 38.9612C15.1847 39.9754 15.1847 41.6182 16.1989 42.6324C16.6468 43.089 17.25 43.3613 17.8892 43.3942C17.9667 44.7124 19.0224 45.7629 20.3427 45.8357C20.4159 47.1576 21.4729 48.2128 22.7962 48.286C22.8212 48.937 23.0904 49.5555 23.5505 50.0176C24.332 50.7963 25.5206 50.9979 26.5154 50.5198L27.2261 51.2385C27.9563 51.9682 29.0502 52.1973 30.0128 51.8219C30.9749 51.4465 31.6234 50.538 31.6649 49.5069C32.3181 49.487 32.9391 49.2173 33.3988 48.7535C33.8492 48.302 34.1176 47.7013 34.1531 47.065C35.4768 46.9923 36.5334 45.9367 36.6066 44.6147C37.6391 44.5737 38.5488 43.9256 38.9247 42.9647C39.301 42.0034 39.0715 40.9114 38.3405 40.1821L37.725 39.5759L38.956 38.3465C39.7662 37.5353 40.2212 36.4361 40.2217 35.29C40.2014 34.4331 39.9266 33.6015 39.4326 32.9006L40.7419 31.5934L41.3574 32.2081C41.6956 32.5438 42.2417 32.5438 42.5799 32.2081L51.7517 23.0216C52.0878 22.6842 52.0878 22.1385 51.7517 21.8011C51.5892 21.6371 51.3674 21.5449 51.1362 21.5449C50.9051 21.5449 50.6837 21.6371 50.5208 21.8011ZM12.5145 27.9222L18.0369 22.4158L19.259 23.6363L13.7455 29.1516L12.5145 27.9222ZM29.6796 49.9656C29.3414 50.3012 28.7953 50.3012 28.4575 49.9656L27.842 49.3509L29.073 48.13L29.6796 48.7362C29.8439 48.8985 29.9361 49.1201 29.9361 49.3509C29.9361 49.5817 29.8439 49.8032 29.6796 49.9656ZM32.1331 47.5153C31.7949 47.8509 31.2488 47.8509 30.9106 47.5153L30.3387 46.9006L30.9542 46.2859L31.5608 45.6797L32.1767 46.2859C32.3405 46.4487 32.4328 46.6698 32.4328 46.9006C32.4328 47.1314 32.3405 47.3529 32.1767 47.5153H32.1331ZM34.5866 45.065C34.2484 45.4006 33.7023 45.4006 33.3641 45.065L32.7486 44.4503L33.9711 43.2298L34.5866 43.8445C34.9227 44.1823 34.9227 44.7276 34.5866 45.065ZM37.0401 42.6151C36.8771 42.7787 36.6557 42.8709 36.4246 42.8709C36.1935 42.8709 35.9717 42.7787 35.8091 42.6151L35.2021 42L36.4072 40.7795L37.0227 41.3942C37.3635 41.7269 37.3715 42.2727 37.0401 42.6151ZM38.2622 31.5934L32.7486 26.0866L33.9711 24.8661L39.4936 30.3725L38.2622 31.5934Z" fill="#FFBB01"/>
<path d="M16.4642 13.8529H35.5323C36.0109 13.8529 36.399 13.4652 36.399 12.9871V0.865806C36.399 0.387668 36.0109 0 35.5323 0H16.4642C15.9856 0 15.5975 0.387668 15.5975 0.865806V12.9871C15.5975 13.4652 15.9856 13.8529 16.4642 13.8529ZM17.331 10.3897C18.2883 10.3897 19.0644 11.165 19.0644 12.1213H17.331V10.3897ZM34.6656 12.1213H32.9321C32.9321 11.165 33.7083 10.3897 34.6656 10.3897V12.1213ZM34.6656 3.46322C33.7083 3.46322 32.9321 2.68789 32.9321 1.73161H34.6656V3.46322ZM34.6656 5.19483V8.65806C32.7505 8.65806 31.1986 10.2087 31.1986 12.1213H20.7979C20.7979 10.2087 19.2456 8.65806 17.331 8.65806V5.19483C19.2456 5.19483 20.7979 3.64416 20.7979 1.73161H31.1986C31.1986 3.64416 32.7505 5.19483 34.6656 5.19483ZM17.331 1.73161H19.0644C19.0644 2.68789 18.2883 3.46322 17.331 3.46322V1.73161Z" fill="#FFBB01"/>
<path d="M25.9976 10.3896C27.9119 10.3896 29.464 8.83897 29.464 6.92642C29.464 5.01387 27.9119 3.4632 25.9976 3.4632C24.0828 3.4632 22.5311 5.01387 22.5311 6.92642C22.5311 8.83897 24.0828 10.3896 25.9976 10.3896ZM25.9976 5.19481C26.9547 5.19481 27.7308 5.97014 27.7308 6.92642C27.7308 7.88269 26.9547 8.65803 25.9976 8.65803C25.0404 8.65803 24.2643 7.88269 24.2643 6.92642C24.2643 5.97014 25.0404 5.19481 25.9976 5.19481Z" fill="#FFBB01"/>
<path d="M32.9316 6.92641C32.9316 7.40455 32.5436 7.79222 32.065 7.79222C31.5864 7.79222 31.1984 7.40455 31.1984 6.92641C31.1984 6.44828 31.5864 6.06061 32.065 6.06061C32.5436 6.06061 32.9316 6.44828 32.9316 6.92641Z" fill="#FFBB01"/>
<path d="M20.7975 6.92641C20.7975 7.40455 20.4094 7.79222 19.9309 7.79222C19.4523 7.79222 19.0642 7.40455 19.0642 6.92641C19.0642 6.44828 19.4523 6.06061 19.9309 6.06061C20.4094 6.06061 20.7975 6.44828 20.7975 6.92641Z" fill="#FFBB01"/>
<path d="M51.8527 5.5845L48.3858 0.38967C48.2246 0.149967 47.955 0.00665283 47.6664 0.00665283C47.3777 0.00665283 47.1077 0.149967 46.9469 0.38967L43.48 5.5845C43.3852 5.72528 43.334 5.891 43.3327 6.06053V9.52375C43.3327 10.0019 43.7208 10.3896 44.1994 10.3896C44.6781 10.3896 45.0662 10.0019 45.0662 9.52375V6.3201L47.6664 2.42398L50.2666 6.3201V15.5844C50.2666 16.0625 50.6546 16.4502 51.1333 16.4502C51.6119 16.4502 52 16.0625 52 15.5844V6.06053C51.9987 5.891 51.9475 5.72528 51.8527 5.5845Z" fill="#FFBB01"/>
<path d="M48.533 12.1212V6.92641C48.533 6.44828 48.1449 6.06061 47.6663 6.06061C47.1877 6.06061 46.7997 6.44828 46.7997 6.92641V12.1212C46.7997 12.5994 47.1877 12.9871 47.6663 12.9871C48.1449 12.9871 48.533 12.5994 48.533 12.1212Z" fill="#FFBB01"/>
<path d="M0.862807 7.79219H1.72954V18.1819C1.72954 18.66 2.11762 19.0477 2.59626 19.0477C3.07491 19.0477 3.46299 18.66 3.46299 18.1819V6.92638C3.46299 6.44824 3.07491 6.06058 2.59626 6.06058H2.54421L5.19645 2.35511L7.84869 6.06058H7.79664C7.31799 6.06058 6.92991 6.44824 6.92991 6.92638V8.65799C6.92991 9.13613 7.31799 9.5238 7.79664 9.5238C8.27529 9.5238 8.66337 9.13613 8.66337 8.65799V7.79219H9.5301C9.85385 7.79049 10.1497 7.60913 10.2974 7.32124C10.4451 7.03376 10.4197 6.68752 10.2322 6.42415L5.89855 0.363507C5.7352 0.1386 5.4745 0.00543213 5.19645 0.00543213C4.9184 0.00543213 4.65729 0.1386 4.49435 0.363507L0.160705 6.42415C-0.0271988 6.68752 -0.0521681 7.03376 0.0955314 7.32124C0.243231 7.60913 0.539053 7.79049 0.862807 7.79219Z" fill="#FFBB01"/>
<path d="M5.19577 12.1213V14.7187C5.19577 15.1968 5.5838 15.5845 6.06239 15.5845C6.54098 15.5845 6.92901 15.1968 6.92901 14.7187V12.1213C6.92901 11.6432 6.54098 11.2555 6.06239 11.2555C5.5838 11.2555 5.19577 11.6432 5.19577 12.1213Z" fill="#FFBB01"/>
</svg>
