<svg width="52" height="52" viewBox="0 0 52 52" fill="none" xmlns="http://www.w3.org/2000/svg">
<path d="M51.9044 12.3195C51.7254 11.6538 51.2887 11.0863 50.6912 10.7423C50.0933 10.3966 49.3825 10.303 48.7156 10.482C48.0496 10.6615 47.4821 11.0978 47.1381 11.6953L46.7048 12.4494C46.2931 12.2128 45.7671 12.3521 45.5264 12.7617L43.3252 16.514L42.5711 16.0807C42.3714 15.9651 42.1336 15.9338 41.911 15.9939C41.688 16.0544 41.4985 16.2009 41.3838 16.4014C41.149 16.8157 41.292 17.3422 41.7045 17.58L42.4586 18.0133L35.0925 30.7793L33.2726 35.6416L32.406 37.262C31.8986 38.1447 31.9528 39.242 32.5448 40.0702L30.5949 42.462L30.0491 41.093C29.8028 40.4828 29.2328 40.0647 28.5774 40.0135C27.9215 39.9618 27.2932 40.286 26.9551 40.8501L26.6432 41.3786L26.3487 37.912C26.281 37.0918 25.6459 36.4325 24.8292 36.3335C24.0121 36.2349 23.2386 36.7245 22.9775 37.5049L20.8457 43.9008C20.6968 44.3531 20.9405 44.8406 21.3916 44.993C21.4762 45.0323 21.5672 45.056 21.6603 45.062C22.0326 45.0632 22.3644 44.8258 22.4837 44.4729L24.6066 38.077L24.91 41.5953C24.9726 42.346 25.5121 42.9702 26.2459 43.1403C26.9796 43.3104 27.7387 42.9871 28.1251 42.3409L28.4458 41.812L28.9832 43.1729C29.2113 43.7463 29.7271 44.1555 30.3377 44.2465C30.9483 44.3375 31.561 44.0967 31.9469 43.6147L33.9661 41.0583C34.1895 41.1167 34.4197 41.1459 34.6508 41.145C35.5796 41.1522 36.4419 40.663 36.9125 39.862L37.7791 38.4147L41.0808 34.4021L48.5248 21.48L49.2788 21.9133C49.4798 22.0284 49.6262 22.2184 49.6859 22.4423C49.7459 22.6645 49.7146 22.9014 49.5995 23.1008L46.1332 29.1069C46.0024 29.3041 45.958 29.5462 46.0104 29.7772C46.0629 30.0079 46.2072 30.2072 46.4103 30.3286C46.61 30.4446 46.8478 30.4759 47.0704 30.4158C47.2934 30.3553 47.483 30.2089 47.5977 30.0083L51.064 24.0021C51.4097 23.4042 51.5033 22.6932 51.3238 22.0263C51.1444 21.3602 50.7082 20.7928 50.1107 20.4487L49.3567 20.0154L51.5231 16.2626C51.7597 15.8509 51.6205 15.3253 51.2113 15.0841L51.6446 14.33C51.9996 13.7227 52.0935 12.9974 51.9044 12.3195ZM48.6373 12.562C48.752 12.3614 48.9424 12.2145 49.1662 12.1549C49.3888 12.0998 49.6241 12.1307 49.8247 12.2416C50.0256 12.3563 50.1721 12.5467 50.2321 12.7702C50.2871 12.9928 50.2563 13.228 50.1454 13.4286L49.7121 14.1827L48.204 13.3161L48.6373 12.562ZM36.8257 36.7596L36.3924 36.5083L35.1099 35.7626L36.3404 32.4695L39.0701 34.0467L36.8257 36.7596ZM34.2259 39.264C33.8599 39.0088 33.7473 38.5179 33.9661 38.1286L34.3994 37.3749L35.9071 38.2416L35.4738 38.9868C35.3523 39.1976 35.1484 39.3474 34.911 39.4003C34.6736 39.4527 34.4252 39.4037 34.2259 39.264ZM40.0581 32.6256L37.0597 30.8923L43.9925 18.88L46.9909 20.6133L40.0581 32.6256ZM47.8575 19.114L44.8591 17.3807L46.5923 14.382L49.5907 16.1154L47.8575 19.114Z" fill="#FFBB01"/>
<path d="M13.6741 38.8353L10.6071 41.8949L8.77002 40.0575C8.43197 39.7215 7.88619 39.7215 7.54814 40.0575C7.38398 40.2204 7.29175 40.4417 7.29175 40.6728C7.29175 40.9038 7.38398 41.1256 7.54814 41.2881L9.38519 43.1255C9.71013 43.448 10.1493 43.6286 10.6071 43.6282C11.0674 43.6308 11.5104 43.4501 11.8374 43.1255L14.8959 40.0575C15.1904 39.7134 15.1705 39.201 14.8507 38.881C14.5304 38.5607 14.018 38.5408 13.6741 38.8353Z" fill="#FFBB01"/>
<path d="M3.466 41.1667C3.466 45.2355 6.76398 48.5333 10.8321 48.5333C14.9002 48.5333 18.1981 45.2355 18.1981 41.1667C18.1981 40.6881 17.8101 40.3 17.3315 40.3C16.853 40.3 16.4649 40.6881 16.4649 41.1667C16.4649 44.2779 13.943 46.8 10.8321 46.8C7.72113 46.8 5.1992 44.2779 5.1992 41.1667C5.1992 38.0555 7.72113 35.5333 10.8321 35.5333C12.0516 35.5299 13.2385 35.9256 14.2117 36.6603C14.5947 36.9476 15.138 36.8697 15.4249 36.4867C15.7122 36.1038 15.6347 35.5608 15.2518 35.2735C13.0197 33.5994 10.0332 33.3303 7.53791 34.5778C5.04221 35.8257 3.466 38.3767 3.466 41.1667Z" fill="#FFBB01"/>
<path d="M31.1975 6.93328C31.6761 6.93328 32.0641 6.54565 32.0641 6.06662C32.0641 5.588 31.6761 5.19995 31.1975 5.19995H8.66604C8.18746 5.19995 7.79944 5.588 7.79944 6.06662V9.53328C7.79944 10.0123 8.18746 10.4 8.66604 10.4H31.1975C31.6761 10.4 32.0641 10.0123 32.0641 9.53328C32.0641 9.05467 31.6761 8.66662 31.1975 8.66662H9.53263V6.93328H31.1975Z" fill="#FFBB01"/>
<path d="M11.2659 12.1334C10.7873 12.1334 10.3993 12.5214 10.3993 13C10.3993 13.4791 10.7873 13.8667 11.2659 13.8667H28.5978C29.0764 13.8667 29.4644 13.4791 29.4644 13C29.4644 12.5214 29.0764 12.1334 28.5978 12.1334H11.2659Z" fill="#FFBB01"/>
<path d="M33.7974 18.2H14.7323C14.2537 18.2 13.8657 18.588 13.8657 19.0666C13.8657 19.5457 14.2537 19.9333 14.7323 19.9333H33.7974C34.276 19.9333 34.664 19.5457 34.664 19.0666C34.664 18.588 34.276 18.2 33.7974 18.2Z" fill="#FFBB01"/>
<path d="M25.1305 24.2667C25.1305 23.7881 24.7425 23.4 24.2639 23.4H6.93203C6.45345 23.4 6.06543 23.7881 6.06543 24.2667C6.06543 24.7457 6.45345 25.1334 6.93203 25.1334H24.2639C24.7425 25.1334 25.1305 24.7457 25.1305 24.2667Z" fill="#FFBB01"/>
<path d="M33.7965 23.4H27.7311C27.2526 23.4 26.8646 23.7881 26.8646 24.2667C26.8646 24.7457 27.2526 25.1334 27.7311 25.1334H33.7965C34.275 25.1334 34.663 24.7457 34.663 24.2667C34.663 23.7881 34.275 23.4 33.7965 23.4Z" fill="#FFBB01"/>
<path d="M15.598 29.4667C16.0766 29.4667 16.4646 29.079 16.4646 28.6C16.4646 28.1214 16.0766 27.7333 15.598 27.7333H6.93203C6.45345 27.7333 6.06543 28.1214 6.06543 28.6C6.06543 29.079 6.45345 29.4667 6.93203 29.4667H15.598Z" fill="#FFBB01"/>
<path d="M19.0651 29.4667H25.1305C25.609 29.4667 25.997 29.079 25.997 28.6C25.997 28.1214 25.609 27.7333 25.1305 27.7333H19.0651C18.5866 27.7333 18.1986 28.1214 18.1986 28.6C18.1986 29.079 18.5866 29.4667 19.0651 29.4667Z" fill="#FFBB01"/>
<path d="M38.9968 39.8667C38.5182 39.8667 38.1302 40.2547 38.1302 40.7333V49.4C38.1302 49.879 37.7422 50.2667 37.2636 50.2667H2.59979C2.12121 50.2667 1.73319 49.879 1.73319 49.4V2.6C1.73319 2.12139 2.12121 1.73333 2.59979 1.73333H37.2636C37.7422 1.73333 38.1302 2.12139 38.1302 2.6V18.8762C38.1302 19.3549 38.5182 19.7429 38.9968 19.7429C39.4754 19.7429 39.8634 19.3549 39.8634 18.8762V2.6C39.8634 1.16416 38.6994 0 37.2636 0H2.59979C1.16407 0 0 1.16416 0 2.6V49.4C0 50.8363 1.16407 52 2.59979 52H37.2636C38.6994 52 39.8634 50.8363 39.8634 49.4V40.7333C39.8634 40.2547 39.4754 39.8667 38.9968 39.8667Z" fill="#FFBB01"/>
</svg>
