<svg width="16" height="18" viewBox="0 0 16 18" fill="none" xmlns="http://www.w3.org/2000/svg">
<path d="M13.469 10.7298C13.1198 10.3226 12.6986 10.1048 12.2521 10.1048C11.8093 10.1048 11.3845 10.3185 11.0208 10.7258L9.88315 11.996C9.78954 11.9395 9.69593 11.8871 9.60593 11.8347C9.47632 11.7621 9.35391 11.6935 9.2495 11.621C8.18382 10.8629 7.21535 9.875 6.28648 8.59677C5.83645 7.95968 5.53402 7.42339 5.31441 6.87903C5.60963 6.57661 5.88325 6.2621 6.14967 5.95968C6.25048 5.84677 6.35128 5.72984 6.45209 5.61693C7.20815 4.77016 7.20815 3.67339 6.45209 2.82661L5.46922 1.72581C5.35761 1.60081 5.2424 1.47177 5.13439 1.34274C4.91838 1.09274 4.69156 0.834677 4.45754 0.592742C4.10832 0.205645 3.69069 0 3.25145 0C2.81222 0 2.38739 0.205645 2.02736 0.592742C2.02376 0.596774 2.02376 0.596774 2.02016 0.600806L0.796072 1.98387C0.335238 2.5 0.0724188 3.12903 0.0148146 3.85887C-0.0715918 5.03629 0.238031 6.13306 0.475649 6.85081C1.05889 8.6129 1.93016 10.246 3.22985 11.996C4.80677 14.1048 6.70411 15.7702 8.87147 16.9435C9.69953 17.3831 10.8048 17.9032 12.0397 17.9919C12.1153 17.996 12.1945 18 12.2665 18C13.0982 18 13.7966 17.6653 14.3439 17C14.3475 16.9919 14.3547 16.9879 14.3583 16.9798C14.5455 16.7258 14.7615 16.496 14.9883 16.25C15.1431 16.0847 15.3015 15.9113 15.4564 15.7298C15.8128 15.3145 16 14.8306 16 14.3347C16 13.8347 15.8092 13.3548 15.4456 12.9516L13.469 10.7298ZM14.7579 14.9758C14.7543 14.9758 14.7543 14.9798 14.7579 14.9758C14.6175 15.1452 14.4735 15.2984 14.3187 15.4677C14.0847 15.7177 13.847 15.9798 13.6238 16.2742C13.2602 16.7097 12.8318 16.9153 12.2701 16.9153C12.2161 16.9153 12.1585 16.9153 12.1045 16.9113C11.0352 16.8347 10.0416 16.3669 9.2963 15.9677C7.25855 14.8629 5.46922 13.2944 3.98231 11.3065C2.75462 9.64919 1.93376 8.11693 1.39012 6.47177C1.05529 5.46774 0.932883 4.68548 0.986887 3.94758C1.02289 3.47581 1.1849 3.08468 1.48372 2.75L2.71141 1.375C2.88783 1.18952 3.07504 1.08871 3.25866 1.08871C3.48547 1.08871 3.66909 1.24194 3.78429 1.37097C3.78789 1.375 3.79149 1.37903 3.79509 1.38306C4.01471 1.6129 4.22353 1.85081 4.44314 2.10484C4.55475 2.23387 4.66996 2.3629 4.78517 2.49597L5.76804 3.59677C6.14967 4.02419 6.14967 4.41935 5.76804 4.84677C5.66363 4.96371 5.56283 5.08064 5.45842 5.19355C5.156 5.54032 4.86797 5.8629 4.55475 6.17742C4.54755 6.18548 4.54035 6.18952 4.53675 6.19758C4.22713 6.54435 4.28473 6.88306 4.34954 7.1129C4.35314 7.125 4.35674 7.1371 4.36034 7.14919C4.61596 7.84274 4.97598 8.49597 5.52322 9.27419L5.52682 9.27823C6.5205 10.6492 7.56817 11.7177 8.72386 12.5363C8.87147 12.6411 9.02268 12.7258 9.16669 12.8065C9.2963 12.879 9.41871 12.9476 9.52312 13.0202C9.53752 13.0282 9.55192 13.0403 9.56632 13.0484C9.68873 13.1169 9.80394 13.1492 9.92275 13.1492C10.2216 13.1492 10.4088 12.9395 10.47 12.871L11.7013 11.4919C11.8237 11.3548 12.0181 11.1895 12.2449 11.1895C12.4681 11.1895 12.6518 11.3468 12.7634 11.4839C12.767 11.4879 12.767 11.4879 12.7706 11.4919L14.7543 13.7137C15.1251 14.125 15.1251 14.5484 14.7579 14.9758Z" fill="#949494"/>
<path d="M8.6352 4.34874C9.51995 4.51855 10.3237 4.99711 10.9653 5.73038C11.6069 6.46365 12.0222 7.38217 12.1742 8.39331C12.2114 8.64803 12.4038 8.82556 12.6233 8.82556C12.6504 8.82556 12.674 8.8217 12.701 8.81784C12.9509 8.77153 13.1164 8.50138 13.0758 8.21579C12.8935 6.99238 12.387 5.87703 11.6136 4.99325C10.8403 4.10946 9.8644 3.53056 8.79392 3.32216C8.54402 3.27585 8.31102 3.46496 8.26712 3.74669C8.22322 4.02842 8.38531 4.30243 8.6352 4.34874Z" fill="#949494"/>
<path d="M15.9699 8.06621C15.6693 6.05165 14.8386 4.21847 13.5621 2.75964C12.2856 1.30082 10.6816 0.351423 8.91886 0.00794306C8.67235 -0.0422282 8.43934 0.150738 8.39544 0.432469C8.35492 0.718059 8.52039 0.984352 8.77028 1.03452C10.3439 1.33941 11.7791 2.19232 12.9205 3.49291C14.0619 4.79737 14.8048 6.43758 15.0716 8.23602C15.1087 8.49074 15.3012 8.66827 15.5207 8.66827C15.5477 8.66827 15.5714 8.66441 15.5984 8.66055C15.8449 8.6181 16.0138 8.34794 15.9699 8.06621Z" fill="#949494"/>
</svg>
